<mxfile host="app.diagrams.net" modified="2021-06-24T14:15:29.029Z" agent="5.0 (Windows NT 10.0; Win64; x64) AppleWebKit/537.36 (KHTML, like Gecko) Chrome/91.0.4472.114 Safari/537.36 Edg/91.0.864.54" etag="7dqevIMWKB6iCmBw-gsN" version="14.8.0" type="github">
  <diagram id="0t_8MSKbAdgx79rqwuaL" name="Page-1">
    <mxGraphModel dx="566" dy="310" grid="1" gridSize="10" guides="1" tooltips="1" connect="1" arrows="1" fold="1" page="1" pageScale="1" pageWidth="827" pageHeight="1169" math="0" shadow="0">
      <root>
        <mxCell id="0" />
        <mxCell id="1" parent="0" />
        <mxCell id="39sDvWkUhEsfzMTJaCIr-1" value="" style="rounded=0;whiteSpace=wrap;html=1;dashed=1;gradientColor=#ffffff;fillColor=none;" vertex="1" parent="1">
          <mxGeometry x="120" y="200" width="360" height="240" as="geometry" />
        </mxCell>
        <mxCell id="39sDvWkUhEsfzMTJaCIr-2" value="" style="endArrow=classic;html=1;entryX=0;entryY=0.5;entryDx=0;entryDy=0;" edge="1" parent="1" target="39sDvWkUhEsfzMTJaCIr-8">
          <mxGeometry width="50" height="50" relative="1" as="geometry">
            <mxPoint x="40" y="280" as="sourcePoint" />
            <mxPoint x="90" y="240" as="targetPoint" />
          </mxGeometry>
        </mxCell>
        <mxCell id="39sDvWkUhEsfzMTJaCIr-6" value="请求" style="edgeLabel;html=1;align=center;verticalAlign=middle;resizable=0;points=[];" vertex="1" connectable="0" parent="39sDvWkUhEsfzMTJaCIr-2">
          <mxGeometry x="0.195" y="1" relative="1" as="geometry">
            <mxPoint x="-11" as="offset" />
          </mxGeometry>
        </mxCell>
        <mxCell id="39sDvWkUhEsfzMTJaCIr-3" value="" style="endArrow=classic;html=1;exitX=0;exitY=0.5;exitDx=0;exitDy=0;" edge="1" parent="1" source="39sDvWkUhEsfzMTJaCIr-9">
          <mxGeometry width="50" height="50" relative="1" as="geometry">
            <mxPoint x="-10" y="360" as="sourcePoint" />
            <mxPoint x="40" y="360" as="targetPoint" />
          </mxGeometry>
        </mxCell>
        <mxCell id="39sDvWkUhEsfzMTJaCIr-7" value="响应" style="edgeLabel;html=1;align=center;verticalAlign=middle;resizable=0;points=[];" vertex="1" connectable="0" parent="39sDvWkUhEsfzMTJaCIr-3">
          <mxGeometry x="-0.1769" y="1" relative="1" as="geometry">
            <mxPoint x="-10" y="-2" as="offset" />
          </mxGeometry>
        </mxCell>
        <mxCell id="39sDvWkUhEsfzMTJaCIr-8" value="反序列化" style="rounded=0;whiteSpace=wrap;html=1;gradientColor=#ffffff;" vertex="1" parent="1">
          <mxGeometry x="140" y="260" width="60" height="40" as="geometry" />
        </mxCell>
        <mxCell id="39sDvWkUhEsfzMTJaCIr-9" value="序列化" style="rounded=0;whiteSpace=wrap;html=1;gradientColor=#ffffff;" vertex="1" parent="1">
          <mxGeometry x="140" y="340" width="60" height="40" as="geometry" />
        </mxCell>
        <mxCell id="39sDvWkUhEsfzMTJaCIr-11" value="数据处理逻辑" style="rounded=0;whiteSpace=wrap;html=1;" vertex="1" parent="1">
          <mxGeometry x="240" y="260" width="80" height="120" as="geometry" />
        </mxCell>
        <mxCell id="39sDvWkUhEsfzMTJaCIr-12" value="" style="endArrow=classic;html=1;exitX=1;exitY=0.5;exitDx=0;exitDy=0;" edge="1" parent="1" source="39sDvWkUhEsfzMTJaCIr-8">
          <mxGeometry width="50" height="50" relative="1" as="geometry">
            <mxPoint x="180" y="440" as="sourcePoint" />
            <mxPoint x="239" y="280" as="targetPoint" />
          </mxGeometry>
        </mxCell>
        <mxCell id="39sDvWkUhEsfzMTJaCIr-14" value="" style="endArrow=classic;html=1;entryX=1;entryY=0.5;entryDx=0;entryDy=0;" edge="1" parent="1" target="39sDvWkUhEsfzMTJaCIr-9">
          <mxGeometry width="50" height="50" relative="1" as="geometry">
            <mxPoint x="238" y="360" as="sourcePoint" />
            <mxPoint x="230" y="460" as="targetPoint" />
          </mxGeometry>
        </mxCell>
      </root>
    </mxGraphModel>
  </diagram>
</mxfile>
